<?xml version="1.0" encoding="UTF-8"?>
<svg xmlns="http://www.w3.org/2000/svg" width="1050" height="420" viewBox="0 0 1050 420">
<style>
text { font-family: 'DejaVu Sans', 'Arial', sans-serif; fill: #222; }
.axis { stroke: #444; stroke-width: 1; }
.grid { stroke: #ccc; stroke-width: 0.6; }
.line { fill: none; stroke-width: 1.8; }
</style>
<rect width="1050" height="420" fill="white"/>
<text x="292.5" y="24" text-anchor="middle" font-size="15" font-weight="600">S1 tied baseline</text>
<line class="grid" x1="58.0" y1="368.0" x2="527.0" y2="368.0"/>
<line class="grid" x1="58.0" y1="317.8" x2="527.0" y2="317.8"/>
<line class="grid" x1="58.0" y1="267.7" x2="527.0" y2="267.7"/>
<line class="grid" x1="58.0" y1="217.5" x2="527.0" y2="217.5"/>
<line class="grid" x1="58.0" y1="167.4" x2="527.0" y2="167.4"/>
<line class="grid" x1="58.0" y1="117.2" x2="527.0" y2="117.2"/>
<line class="grid" x1="58.0" y1="67.1" x2="527.0" y2="67.1"/>
<line class="grid" x1="58.0" y1="42.0" x2="58.0" y2="368.0"/>
<line class="grid" x1="144.9" y1="42.0" x2="144.9" y2="368.0"/>
<line class="grid" x1="231.7" y1="42.0" x2="231.7" y2="368.0"/>
<line class="grid" x1="318.6" y1="42.0" x2="318.6" y2="368.0"/>
<line class="grid" x1="405.4" y1="42.0" x2="405.4" y2="368.0"/>
<line class="grid" x1="492.3" y1="42.0" x2="492.3" y2="368.0"/>
<line class="axis" x1="58.0" y1="368.0" x2="527.0" y2="368.0"/>
<line class="axis" x1="58.0" y1="42.0" x2="58.0" y2="368.0"/>
<text x="272.5" y="408" text-anchor="middle" font-size="13">Step (k)</text>
<text x="16" y="210.0" transform="rotate(-90 16 210.0)" text-anchor="middle" font-size="13">Gradient norm</text>
<text x="50.0" y="372.0" text-anchor="end" font-size="11">0.00</text>
<text x="50.0" y="321.8" text-anchor="end" font-size="11">0.02</text>
<text x="50.0" y="271.7" text-anchor="end" font-size="11">0.04</text>
<text x="50.0" y="221.5" text-anchor="end" font-size="11">0.06</text>
<text x="50.0" y="171.4" text-anchor="end" font-size="11">0.08</text>
<text x="50.0" y="121.2" text-anchor="end" font-size="11">0.10</text>
<text x="50.0" y="71.1" text-anchor="end" font-size="11">0.12</text>
<text x="58.0" y="386.0" text-anchor="middle" font-size="11">0</text>
<text x="144.9" y="386.0" text-anchor="middle" font-size="11">5</text>
<text x="231.7" y="386.0" text-anchor="middle" font-size="11">10</text>
<text x="318.6" y="386.0" text-anchor="middle" font-size="11">15</text>
<text x="405.4" y="386.0" text-anchor="middle" font-size="11">20</text>
<text x="492.3" y="386.0" text-anchor="middle" font-size="11">25</text>
<line class="line" x1="66.0" y1="54.0" x2="92.0" y2="54.0" stroke="#1f77b4"/>
<text x="98.0" y="58.0" font-size="10">input embedding path</text>
<polyline class="line" stroke="#1f77b4" points="75.37,236.50 92.74,256.87 110.11,263.89 127.48,270.76 144.85,273.57 162.22,277.39 179.59,277.73 196.96,281.34 214.33,282.80 231.70,284.31 249.07,285.93 266.44,285.14 283.81,285.05 301.19,285.79 318.56,284.68 335.93,283.87 353.30,282.81 370.67,283.04 388.04,283.81 405.41,281.72 422.78,281.56 440.15,280.35 457.52,278.46 474.89,278.95 492.26,277.55 509.63,277.43 527.00,276.89"/>
<line class="line" x1="66.0" y1="72.0" x2="92.0" y2="72.0" stroke="#ff7f0e"/>
<text x="98.0" y="76.0" font-size="10">output unembedding path</text>
<polyline class="line" stroke="#ff7f0e" points="75.37,94.86 92.74,118.80 110.11,135.42 127.48,150.98 144.85,170.23 162.22,188.15 179.59,169.61 196.96,191.90 214.33,192.69 231.70,207.49 249.07,202.92 266.44,210.70 283.81,211.69 301.19,204.36 318.56,215.04 335.93,213.07 353.30,209.35 370.67,211.14 388.04,217.75 405.41,198.54 422.78,213.33 440.15,217.04 457.52,213.23 474.89,209.84 492.26,217.53 509.63,212.46 527.00,208.86"/>
<line class="line" x1="66.0" y1="90.0" x2="92.0" y2="90.0" stroke="#2ca02c"/>
<text x="98.0" y="94.0" font-size="10">shared total gradient</text>
<polyline class="line" stroke="#2ca02c" points="75.37,63.52 92.74,95.76 110.11,113.92 127.48,130.50 144.85,149.42 162.22,166.68 179.59,149.77 196.96,171.89 214.33,173.08 231.70,187.25 249.07,183.90 266.44,190.10 283.81,191.01 301.19,184.81 318.56,193.72 335.93,191.52 353.30,187.97 370.67,189.56 388.04,195.97 405.41,178.25 422.78,191.07 440.15,193.28 457.52,189.01 474.89,186.84 492.26,192.52 509.63,187.89 527.00,184.71"/>
<text x="797.5" y="24" text-anchor="middle" font-size="15" font-weight="600">S2 untied baseline</text>
<line class="grid" x1="563.0" y1="368.0" x2="1032.0" y2="368.0"/>
<line class="grid" x1="563.0" y1="317.8" x2="1032.0" y2="317.8"/>
<line class="grid" x1="563.0" y1="267.7" x2="1032.0" y2="267.7"/>
<line class="grid" x1="563.0" y1="217.5" x2="1032.0" y2="217.5"/>
<line class="grid" x1="563.0" y1="167.4" x2="1032.0" y2="167.4"/>
<line class="grid" x1="563.0" y1="117.2" x2="1032.0" y2="117.2"/>
<line class="grid" x1="563.0" y1="67.1" x2="1032.0" y2="67.1"/>
<line class="grid" x1="563.0" y1="42.0" x2="563.0" y2="368.0"/>
<line class="grid" x1="649.9" y1="42.0" x2="649.9" y2="368.0"/>
<line class="grid" x1="736.7" y1="42.0" x2="736.7" y2="368.0"/>
<line class="grid" x1="823.6" y1="42.0" x2="823.6" y2="368.0"/>
<line class="grid" x1="910.4" y1="42.0" x2="910.4" y2="368.0"/>
<line class="grid" x1="997.3" y1="42.0" x2="997.3" y2="368.0"/>
<line class="axis" x1="563.0" y1="368.0" x2="1032.0" y2="368.0"/>
<line class="axis" x1="563.0" y1="42.0" x2="563.0" y2="368.0"/>
<text x="797.5" y="408" text-anchor="middle" font-size="13">Step (k)</text>
<text x="555.0" y="372.0" text-anchor="end" font-size="11">0.00</text>
<text x="555.0" y="321.8" text-anchor="end" font-size="11">0.02</text>
<text x="555.0" y="271.7" text-anchor="end" font-size="11">0.04</text>
<text x="555.0" y="221.5" text-anchor="end" font-size="11">0.06</text>
<text x="555.0" y="171.4" text-anchor="end" font-size="11">0.08</text>
<text x="555.0" y="121.2" text-anchor="end" font-size="11">0.10</text>
<text x="555.0" y="71.1" text-anchor="end" font-size="11">0.12</text>
<text x="563.0" y="386.0" text-anchor="middle" font-size="11">0</text>
<text x="649.9" y="386.0" text-anchor="middle" font-size="11">5</text>
<text x="736.7" y="386.0" text-anchor="middle" font-size="11">10</text>
<text x="823.6" y="386.0" text-anchor="middle" font-size="11">15</text>
<text x="910.4" y="386.0" text-anchor="middle" font-size="11">20</text>
<text x="997.3" y="386.0" text-anchor="middle" font-size="11">25</text>
<line class="line" x1="571.0" y1="54.0" x2="597.0" y2="54.0" stroke="#1f77b4"/>
<text x="603.0" y="58.0" font-size="10">input embedding gradient</text>
<polyline class="line" stroke="#1f77b4" points="580.37,361.28 597.74,361.78 615.11,362.06 632.48,362.08 649.85,362.14 667.22,362.34 684.59,362.16 701.96,362.13 719.33,362.06 736.70,362.01 754.07,362.00 771.44,361.78 788.81,361.65 806.19,361.63 823.56,361.50 840.93,361.31 858.30,361.25 875.67,361.04 893.04,361.04 910.41,360.88 927.78,360.84 945.15,360.69 962.52,360.47 979.89,360.57 997.26,360.35 1014.63,360.36 1032.00,359.59"/>
<line class="line" x1="571.0" y1="72.0" x2="597.0" y2="72.0" stroke="#ff7f0e"/>
<text x="603.0" y="76.0" font-size="10">output head gradient</text>
<polyline class="line" stroke="#ff7f0e" points="580.37,108.38 597.74,121.54 615.11,143.34 632.48,150.99 649.85,173.09 667.22,193.99 684.59,175.37 701.96,186.46 719.33,189.79 736.70,209.50 754.07,203.61 771.44,214.05 788.81,211.51 806.19,204.90 823.56,213.33 840.93,215.40 858.30,207.65 875.67,213.56 893.04,216.68 910.41,201.46 927.78,217.20 945.15,220.11 962.52,213.89 979.89,211.50 997.26,219.00 1014.63,215.50 1032.00,211.53"/>
</svg>
